<?xml version="1.0" encoding="UTF-8"?>
<!DOCTYPE svg PUBLIC "-//W3C//DTD SVG 1.1//EN" "http://www.w3.org/Graphics/SVG/1.1/DTD/svg11.dtd">
<!-- Creator: CorelDRAW 2020 (64-Bit) -->
<svg xmlns="http://www.w3.org/2000/svg" xml:space="preserve" width="188px" height="136px" version="1.1" style="shape-rendering:geometricPrecision; text-rendering:geometricPrecision; image-rendering:optimizeQuality; fill-rule:evenodd; clip-rule:evenodd"
viewBox="0 0 8.94 6.46"
 xmlns:xlink="http://www.w3.org/1999/xlink"
 xmlns:xodm="http://www.corel.com/coreldraw/odm/2003">
 <defs>
  <style type="text/css">
   <![CDATA[
    .fil0 {fill:#00247D;fill-rule:nonzero}
    .fil1 {fill:#CF1B2B;fill-rule:nonzero}
    .fil2 {fill:#EEEEEE;fill-rule:nonzero}
   ]]>
  </style>
 </defs>
 <g id="Слой_x0020_1">
  <metadata id="CorelCorpID_0Corel-Layer"/>
  <g id="_2503281385376">
   <path class="fil0" d="M0 1.01l0 0.98 1.4 0 -1.4 -0.98zm1.16 5.45l2.07 0 0 -1.45 -2.07 1.45zm4.55 -1.45l0 1.45 2.07 0 -2.07 -1.45zm-5.71 -0.54l0 0.98 1.4 -0.98 -1.4 0zm7.78 -4.47l-2.07 0 0 1.45 2.07 -1.45zm1.16 5.45l0 -0.98 -1.4 0 1.4 0.98zm0 -3.46l0 -0.98 -1.4 0.98 1.4 0zm-5.71 -1.99l-2.07 0 2.07 1.45 0 -1.45z"/>
   <path class="fil1" d="M6.25 4.47l2.41 1.69c0.12,-0.12 0.2,-0.27 0.24,-0.43l-1.79 -1.26 -0.86 0zm-3.02 0l-0.53 0 -2.41 1.69c0.12,0.13 0.29,0.23 0.48,0.27l2.46 -1.72 0 -0.24zm2.48 -2.48l0.54 0 2.41 -1.69c-0.13,-0.14 -0.3,-0.23 -0.48,-0.27l-2.47 1.72 0 0.24zm-4.41 -0.98l-1.01 -0.71c-0.12,0.12 -0.21,0.27 -0.25,0.43l1.79 1.26 0.87 0 -1.4 -0.98z"/>
   <path class="fil2" d="M8.94 3.97l-3.72 0 0 2.49 0.49 0 0 -1.45 2.07 1.45 0.17 0c0,0 0,0 0,0 0.27,0 0.52,-0.11 0.71,-0.3l-2.41 -1.69 0.86 0 1.79 1.26c0.03,-0.09 0.04,-0.17 0.04,-0.26l0 -0.02 -1.4 -0.98 1.4 0 0 -0.5 0 0zm-8.94 0l0 0.5 1.4 0 -1.4 0.98 0 0.02c0,0.27 0.11,0.51 0.29,0.69l2.41 -1.69 0.53 0 0 0.24 -2.46 1.72c0.07,0.02 0.15,0.03 0.22,0.03l0.17 0 2.07 -1.45 0 1.45 0.5 0 0 -2.49 -3.73 0zm8.94 -2.98c0,0 0,0 0,0 0,-0.26 -0.1,-0.51 -0.28,-0.69l-2.41 1.69 -0.54 0 0 -0.24 2.47 -1.72c-0.08,-0.02 -0.15,-0.03 -0.23,-0.03l-0.17 0 -2.07 1.45 0 -1.45 -0.49 0 0 2.48 3.72 0 0 -0.49 -1.4 0 1.4 -0.98 0 -0.02zm-5.71 -0.99l0 1.45 -2.07 -1.45 -0.17 0c0,0 0,0 0,0 -0.26,0 -0.52,0.11 -0.7,0.3l2.41 1.69 -0.87 0 -1.79 -1.26c-0.03,0.09 -0.04,0.18 -0.04,0.26l0 0.02 1.4 0.98 -1.4 0 0 0.49 3.73 0 0 -2.48 -0.5 0z"/>
   <polygon class="fil1" points="5.22,2.48 5.22,0 3.73,0 3.73,2.48 0,2.48 0,3.97 3.73,3.97 3.73,6.46 5.22,6.46 5.22,3.97 8.94,3.97 8.94,2.48 "/>
  </g>
 </g>
</svg>
