<?xml version="1.0" encoding="UTF-8"?>
<!DOCTYPE svg PUBLIC "-//W3C//DTD SVG 1.1//EN" "http://www.w3.org/Graphics/SVG/1.1/DTD/svg11.dtd">
<!-- Creator: CorelDRAW 2020 (64-Bit) -->
<svg xmlns="http://www.w3.org/2000/svg" xml:space="preserve" width="168px" height="168px" version="1.1" style="shape-rendering:geometricPrecision; text-rendering:geometricPrecision; image-rendering:optimizeQuality; fill-rule:evenodd; clip-rule:evenodd"
viewBox="0 0 6.48 6.48"
 xmlns:xlink="http://www.w3.org/1999/xlink"
 xmlns:xodm="http://www.corel.com/coreldraw/odm/2003">
 <defs>
  <style type="text/css">
   <![CDATA[
    .fil0 {fill:#00247D;fill-rule:nonzero}
    .fil1 {fill:#CF1B2B;fill-rule:nonzero}
    .fil2 {fill:#EEEEEE;fill-rule:nonzero}
   ]]>
  </style>
 </defs>
 <g id="Слой_x0020_1">
  <metadata id="CorelCorpID_0Corel-Layer"/>
  <g id="_2503185121136">
   <path class="fil0" d="M0.16 2.23l0.59 0 -0.47 -0.32c-0.04,0.1 -0.08,0.21 -0.12,0.32zm4.09 -2.07c0.47,0.16 0.9,0.42 1.25,0.76l-1.25 0.88 0 -1.64zm1.94 1.75c0.05,0.1 0.09,0.21 0.13,0.32l-0.59 0 0.46 -0.32zm0.13 2.34c-0.04,0.11 -0.08,0.21 -0.13,0.32l-0.46 -0.32 0.59 0zm-0.82 1.31c-0.35,0.34 -0.78,0.6 -1.25,0.76l0 -1.64 1.25 0.88zm-3.27 0.76c-0.47,-0.16 -0.9,-0.42 -1.25,-0.76l1.25 -0.88 0 1.64zm-1.95 -1.75c-0.04,-0.11 -0.08,-0.21 -0.12,-0.32l0.59 0 -0.47 0.32zm0.7 -3.65c0.35,-0.34 0.78,-0.6 1.25,-0.76l0 1.64 -1.25 -0.88z"/>
   <path class="fil1" d="M4.68 4.25l1.21 0.85c0.08,-0.11 0.15,-0.23 0.21,-0.35l-0.72 -0.5 -0.7 0zm0.96 -3.18c0.09,0.1 0.17,0.2 0.25,0.31l-1.21 0.85 -0.43 0 0 -0.19 1.39 -0.97zm-4.8 4.34c-0.09,-0.1 -0.18,-0.2 -0.25,-0.31l1.21 -0.85 0.43 0 0 0.19 -1.39 0.97zm-0.47 -3.68c0.07,-0.12 0.14,-0.24 0.22,-0.35l0.07 0.06 1.14 0.79 -0.7 0 -0.73 -0.5z"/>
   <path class="fil2" d="M6.42 3.84l-2.58 0 0 2.58c0.14,-0.02 0.28,-0.06 0.41,-0.1l0 -1.64 1.25 0.88c0.14,-0.14 0.28,-0.3 0.39,-0.46l-1.21 -0.85 0.7 0 0.72 0.5c0.03,-0.06 0.06,-0.12 0.09,-0.18l-0.46 -0.32 0.59 0c0.04,-0.13 0.08,-0.27 0.1,-0.41zm-2.58 -3.78c0.14,0.02 0.28,0.06 0.41,0.1l0 1.64 1.25 -0.88c0.05,0.05 0.09,0.09 0.14,0.15l-1.39 0.97 0 0.19 0.43 0 1.21 -0.85c0.12,0.17 0.22,0.34 0.3,0.53l-0.46 0.32 0.59 0c0.04,0.13 0.07,0.27 0.1,0.4l-2.58 0 0 -2.57zm-1.21 6.36c-0.13,-0.03 -0.27,-0.06 -0.4,-0.1l0 -1.64 -1.25 0.88c-0.05,-0.05 -0.1,-0.1 -0.14,-0.15l1.39 -0.97 0 -0.19 -0.43 0 -1.21 0.85c-0.12,-0.17 -0.22,-0.35 -0.31,-0.53l0.47 -0.32 -0.59 0c-0.04,-0.13 -0.08,-0.27 -0.1,-0.41l2.57 0 0 2.58zm-2.57 -3.79c0.02,-0.13 0.06,-0.27 0.1,-0.4l0.59 0 -0.47 -0.32c0.03,-0.06 0.06,-0.12 0.09,-0.18l0.73 0.5 0.7 0 -1.21 -0.85c0.11,-0.17 0.24,-0.32 0.39,-0.46l1.25 0.88 0 -1.64c0.13,-0.04 0.27,-0.08 0.4,-0.1l0 2.57 -2.57 0z"/>
   <path class="fil1" d="M3.84 2.63l0 -2.57c-0.19,-0.04 -0.39,-0.06 -0.6,-0.06 -0.21,0 -0.41,0.02 -0.61,0.06l0 2.57 -2.57 0c-0.04,0.2 -0.06,0.4 -0.06,0.61 0,0.21 0.02,0.41 0.06,0.6l2.57 0 0 2.58c0.2,0.04 0.4,0.06 0.61,0.06 0.21,0 0.41,-0.02 0.6,-0.06l0 -2.58 2.58 0c0.04,-0.19 0.06,-0.39 0.06,-0.6 0,-0.21 -0.02,-0.41 -0.06,-0.61l-2.58 0z"/>
  </g>
 </g>
</svg>
