<?xml version="1.0" encoding="UTF-8"?>
<!DOCTYPE svg PUBLIC "-//W3C//DTD SVG 1.1//EN" "http://www.w3.org/Graphics/SVG/1.1/DTD/svg11.dtd">
<!-- Creator: CorelDRAW 2020 (64-Bit) -->
<svg xmlns="http://www.w3.org/2000/svg" xml:space="preserve" width="206px" height="223px" version="1.1" style="shape-rendering:geometricPrecision; text-rendering:geometricPrecision; image-rendering:optimizeQuality; fill-rule:evenodd; clip-rule:evenodd"
viewBox="0 0 142.8 154.7"
 xmlns:xlink="http://www.w3.org/1999/xlink"
 xmlns:xodm="http://www.corel.com/coreldraw/odm/2003">
 <defs>
  <style type="text/css">
   <![CDATA[
    .fil0 {fill:black}
   ]]>
  </style>
 </defs>
 <g id="Слой_x0020_1">
  <metadata id="CorelCorpID_0Corel-Layer"/>
  <path class="fil0" d="M18.3 49.6c-4.9,0 -9.5,1.9 -12.9,5.4 -3.5,3.4 -5.4,8 -5.4,12.9l0 68.5c0,4.8 1.9,9.4 5.4,12.9 3.4,3.4 8,5.4 12.9,5.4l68.5 0c4.8,0 9.4,-2 12.9,-5.4 3.4,-3.5 5.3,-8.1 5.3,-12.9l0 -31.4 19.5 0c4.9,0 9.5,-1.9 12.9,-5.3 3.5,-3.5 5.4,-8.1 5.4,-12.9l0 -68.5c0,-4.9 -1.9,-9.5 -5.4,-12.9 -3.4,-3.5 -8,-5.4 -12.9,-5.4l-68.5 0c-4.8,0 -9.4,1.9 -12.9,5.4 -3.4,3.4 -5.3,8 -5.3,12.9l0 31.3 -19.5 0zm28.8 0l0 -31.3c0,-2.4 1,-4.6 2.6,-6.3 1.7,-1.7 4,-2.6 6.3,-2.6l68.5 0c2.4,0 4.6,0.9 6.3,2.6 1.7,1.7 2.6,3.9 2.6,6.3l0 68.5c0,2.3 -0.9,4.6 -2.6,6.3 -1.7,1.6 -3.9,2.6 -6.3,2.6l-19.5 0 0 -27.8c0,-4.9 -1.9,-9.5 -5.3,-12.9 -3.5,-3.5 -8.1,-5.4 -12.9,-5.4l-39.7 0zm-28.8 9.4l68.5 0c2.3,0 4.6,0.9 6.3,2.6 1.7,1.7 2.6,3.9 2.6,6.3l0 68.5c0,2.3 -0.9,4.6 -2.6,6.3 -1.7,1.7 -4,2.6 -6.3,2.6l-68.5 0c-2.4,0 -4.6,-0.9 -6.3,-2.6 -1.7,-1.7 -2.6,-4 -2.6,-6.3l0 -68.5c0,-2.4 0.9,-4.6 2.6,-6.3 1.7,-1.7 3.9,-2.6 6.3,-2.6z"/>
 </g>
</svg>
