<?xml version="1.0" encoding="UTF-8"?>
<!DOCTYPE svg PUBLIC "-//W3C//DTD SVG 1.1//EN" "http://www.w3.org/Graphics/SVG/1.1/DTD/svg11.dtd">
<!-- Creator: CorelDRAW 2020 (64-Bit) -->
<svg xmlns="http://www.w3.org/2000/svg" xml:space="preserve" width="149px" height="87px" version="1.1" style="shape-rendering:geometricPrecision; text-rendering:geometricPrecision; image-rendering:optimizeQuality; fill-rule:evenodd; clip-rule:evenodd"
viewBox="0 0 39 22.7"
 xmlns:xlink="http://www.w3.org/1999/xlink"
 xmlns:xodm="http://www.corel.com/coreldraw/odm/2003">
 <defs>
  <style type="text/css">
   <![CDATA[
    .fil0 {fill:url(#id0);fill-rule:nonzero}
   ]]>
  </style>
  <linearGradient id="id0" gradientUnits="userSpaceOnUse" x1="0" y1="11.4" x2="39" y2="11.4">
   <stop offset="0" style="stop-opacity:1; stop-color:#FF36A3"/>
   <stop offset="1" style="stop-opacity:1; stop-color:#F58E4D"/>
  </linearGradient>
 </defs>
 <g id="Слой_x0020_1">
  <metadata id="CorelCorpID_0Corel-Layer"/>
  <path class="fil0" d="M31.4 22.6c-2.1,0.4 -4.8,-0.2 -6.5,-1.6 -2.1,-1.7 -3.1,-4.4 -3.3,-7 -0.6,-6 0.2,-13.1 7.4,-13.9 2,-0.3 4.9,0.3 6.5,1.6 2.1,1.8 3.1,4.7 3.4,7.4 0.5,5.6 -0.6,12.8 -7.5,13.5zm-1.8 -14.8c-1.8,0.4 -3,2.2 -2.7,4 0.4,1.8 2.2,3 4,2.6 1.8,-0.3 3,-2.1 2.6,-3.9 -0.3,-1.9 -2.1,-3 -3.9,-2.7zm-20.1 4.2c-0.1,-0.5 -0.1,-1.1 0.6,-1.1 0.7,0.1 1.3,0.1 2,0.1l4.6 0c0.5,0 2.3,-0.1 2.7,0.1 0.4,0.3 0.5,1.2 0.5,1.7 0.5,5.1 -2,9.4 -7.5,9.8 -3.1,0.2 -6.4,0.2 -9,-1.9 -2.2,-1.8 -3,-4.7 -3.3,-7.4 -0.3,-3.3 0.2,-7.4 2.4,-10 1.9,-2.3 4.6,-3 7.4,-3.2 1.4,-0.2 3.5,0 4.8,0.3 1.8,0.4 3.4,1.2 4.5,2.8 1.2,2 0.9,4.8 -1.1,6 -0.2,0.1 -0.7,0.4 -0.9,0.4 -1.4,-0.2 -4.3,0.2 -5.5,-0.1 0.1,-0.5 1.3,-0.8 1.6,-1.7 1.1,-2.5 -1.1,-5.4 -4,-4.3 -1.1,0.4 -1.8,1.7 -1.8,2.9 -0.1,3.3 -0.1,6.8 0,10.2 0,3.2 4.9,4 5.8,0.6 0.8,-2.6 -0.9,-4.4 -3.5,-4.8 -0.2,-0.1 -0.3,-0.2 -0.3,-0.4z"/>
 </g>
</svg>
