<?xml version="1.0" encoding="UTF-8"?>
<!DOCTYPE svg PUBLIC "-//W3C//DTD SVG 1.1//EN" "http://www.w3.org/Graphics/SVG/1.1/DTD/svg11.dtd">
<!-- Creator: CorelDRAW 2020 (64-Bit) -->
<svg xmlns="http://www.w3.org/2000/svg" xml:space="preserve" width="69px" height="86px" version="1.1" style="shape-rendering:geometricPrecision; text-rendering:geometricPrecision; image-rendering:optimizeQuality; fill-rule:evenodd; clip-rule:evenodd"
viewBox="0 0 8.1 10"
 xmlns:xlink="http://www.w3.org/1999/xlink"
 xmlns:xodm="http://www.corel.com/coreldraw/odm/2003">
 <defs>
  <style type="text/css">
   <![CDATA[
    .fil0 {fill:url(#id0);fill-rule:nonzero}
   ]]>
  </style>
  <linearGradient id="id0" gradientUnits="userSpaceOnUse" x1="0" y1="5" x2="8.1" y2="5">
   <stop offset="0" style="stop-opacity:1; stop-color:#FF36A3"/>
   <stop offset="1" style="stop-opacity:1; stop-color:#F58E4D"/>
  </linearGradient>
 </defs>
 <g id="Слой_x0020_1">
  <metadata id="CorelCorpID_0Corel-Layer"/>
  <path class="fil0" d="M4 5c-1,-0.4 -1.8,-0.8 -2.8,-1.5 -1,-0.7 -1.6,-1.7 -0.9,-2.9 0.3,-0.4 0.8,-0.5 1.2,-0.6 1.6,-0.1 2.4,0.9 2.5,2.4 0.1,-0.9 0.4,-1.8 1.3,-2.2 0.5,-0.2 1.3,-0.3 1.8,-0.1 1.3,0.6 1.2,2.1 0.3,2.9 -0.4,0.4 -0.8,0.7 -1.3,1 -0.7,0.4 -1.4,0.7 -2.1,1 1,0.5 1.8,1 2.7,1.5 1,0.7 1.8,1.7 1.1,2.8 -0.2,0.4 -0.7,0.6 -1.2,0.6 -1.8,0.1 -2.3,-0.6 -2.6,-2.3 -0.1,1 -0.3,1.9 -1.3,2.2 -1.4,0.6 -3.1,-0.3 -2.6,-1.9 0.4,-1.2 2.9,-2.3 3.9,-2.9z"/>
 </g>
</svg>
