<?xml version="1.0" encoding="UTF-8"?>
<!DOCTYPE svg PUBLIC "-//W3C//DTD SVG 1.1//EN" "http://www.w3.org/Graphics/SVG/1.1/DTD/svg11.dtd">
<!-- Creator: CorelDRAW 2020 (64-Bit) -->
<svg xmlns="http://www.w3.org/2000/svg" xml:space="preserve" width="476px" height="130px" version="1.1" style="shape-rendering:geometricPrecision; text-rendering:geometricPrecision; image-rendering:optimizeQuality; fill-rule:evenodd; clip-rule:evenodd"
viewBox="0 0 56.61 15.51"
 xmlns:xlink="http://www.w3.org/1999/xlink"
 xmlns:xodm="http://www.corel.com/coreldraw/odm/2003">
 <defs>
  <style type="text/css">
   <![CDATA[
    .fil1 {fill:#12447B}
    .fil0 {fill:url(#id0)}
   ]]>
  </style>
  <linearGradient id="id0" gradientUnits="userSpaceOnUse" x1="0" y1="7.76" x2="55.88" y2="7.76">
   <stop offset="0" style="stop-opacity:1; stop-color:#12447B"/>
   <stop offset="1" style="stop-opacity:1; stop-color:#2CC6DE"/>
  </linearGradient>
 </defs>
 <g id="Слой_x0020_1">
  <metadata id="CorelCorpID_0Corel-Layer"/>
  <path class="fil0" d="M28.21 1.95c0.4,1.9 3.65,1.3 3.02,-0.89 -0.5,-1.71 -3.48,-1.31 -3.02,0.89zm16.07 0.36c-3.27,-3.38 -11.13,-2.06 -11.3,4.37 -0.19,7.57 8.66,7.43 11.29,5.32l-0.03 -5.69 -4.42 0.04 0.02 2.32 1.66 -0.01 0.01 1.66c-0.35,0.22 -0.79,0.34 -1.26,0.38 -2.46,0.21 -4.22,-1.28 -4.24,-3.79 -0.02,-1.57 0.77,-3.18 2.62,-3.64 1.86,-0.46 2.56,0.11 3.94,1.01l1.71 -1.97zm4.82 6.74c-0.37,-3.1 3.39,-3.47 3.86,-0.95 0.58,3.1 -3.54,3.61 -3.86,0.95zm6.67 0.62c0.96,-5.04 -4.44,-6.94 -7.56,-4.93 -1.69,1.08 -2.46,3.25 -1.91,5.17 0.46,1.62 1.81,2.89 3.6,3.23 2.54,0.48 5.36,-0.81 5.87,-3.47zm-27.44 3.38l2.78 -0.01 0 -8.84 -2.82 0.01 0.04 8.84zm-7.98 -4.59l-4.16 7.05 3.11 -0.01 2.9 -5.06 1.63 2.62 3.07 -0.01 -2.84 -4.58 2.63 -4.28 -2.98 0.02 -1.45 2.3 -1.51 -2.33 -3.15 0.04 2.75 4.24zm-9.26 -0.87c0.16,-2.05 3.58,-2.28 3.62,-0.02l-3.62 0.02zm0.02 1.72l6.21 -0.13c0.91,-3.76 -3.1,-6.27 -6.3,-4.86 -3.24,1.42 -3.92,6.49 -0.42,8.38 0.79,0.43 1.9,0.62 2.99,0.55 1.53,-0.11 2.33,-0.54 3.42,-1.62l-1.57 -1.52c-0.92,0.7 -1.27,1.09 -2.6,0.92 -0.94,-0.13 -1.63,-0.76 -1.73,-1.72zm-11.1 3.74l7.39 -0.01 -0.02 -2.55 -4.47 -0.04 -0.08 -9.73 -2.83 0.01 0.01 12.32z"/>
  <path class="fil1" d="M51.54 6.08c0.01,-0.09 0.04,-0.08 0.05,0 0.02,0.07 -0.06,0.04 -0.05,0zm-0.61 -1.42l0.1 -0.01c-0.2,-0.13 -0.1,0 -0.1,0.01zm0.04 0.21c0.03,-0.06 0.13,0.04 -0.01,-0.13 -0.1,0.12 -0.06,0.06 0.01,0.13zm-0.08 0.57c-0.06,-0.1 -0.01,-0.1 -0.14,-0.04 0.05,0.04 -0.05,0.13 0.14,0.04zm-0.61 -0.64c0.15,0.02 0.08,0.04 0.19,-0.04l-0.18 -0.11 -0.01 0.15zm0.39 -0.11l0.07 0.13c0.13,-0.1 0.07,-0.02 0.1,-0.14 -0.14,-0.06 -0.06,-0.05 -0.17,0.01zm0.13 0.5c0.09,-0.12 0.08,-0.12 -0.03,-0.25 -0.14,0.09 -0.13,0.15 0.03,0.25zm3.78 1.11c0.03,-0.2 -0.1,-0.17 -0.3,-0.25 -0.01,0.19 0.1,0.29 0.3,0.25zm0.38 1.01c0.14,-0.1 0.03,-0.02 0.11,-0.16 0,0.13 -0.02,0.15 0.05,0.25 0.15,-0.07 0.09,-0.16 0.02,-0.28 -0.09,-0.14 -0.04,-0.17 -0.15,-0.29 -0.12,0.18 0.01,0.08 -0.02,0.22 -0.03,0.11 -0.12,0.08 -0.01,0.26zm-5.11 -2.21c-0.04,0.11 -0.02,0.1 -0.02,0.23 0.15,-0.02 0.15,-0.08 0.28,-0.01l-0.24 0.05 0.04 0.08c0.26,0.04 0.15,0.05 0.4,-0.01 0.22,-0.06 0.12,0.11 0.28,-0.09l-0.15 -0.28c-0.1,0.02 -0.01,-0.02 -0.08,0.03 0,0.01 -0.03,0.06 -0.04,0.07 -0.11,-0.09 -0.31,-0.11 -0.47,-0.07zm1.76 4.31l-0.03 -0.44 0.24 -0.15 -0.07 -0.39c0.09,-0.07 0.26,-0.16 0.3,-0.23 0.08,-0.14 -0.01,-0.21 0.19,-0.31 0.21,-0.11 0.55,-0.21 0.67,-0.4 -0.12,-0.17 -0.06,0 -0.14,-0.16l0.13 -0.15c0.05,0.1 0.01,0.05 0.01,0.19 0.23,0.1 0.06,0.19 0.35,0.07 0,-0.16 -0.02,-0.12 -0.17,-0.22 0.01,-0.43 -0.01,-0.23 -0.22,-0.43 -0.07,-0.07 -0.17,-0.32 -0.23,-0.43l-0.12 -0.01 -0.07 0c0.03,-0.12 0.05,-0.15 -0.09,-0.12 0.3,0.03 0.14,-0.02 0.19,-0.08 0.03,-0.26 -0.1,-0.12 -0.14,-0.36 0.13,0.04 0.06,0.02 0.16,0.13l0.06 -0.06 -0.01 -0.15c-0.57,-0.33 -0.16,-0.18 -0.42,-0.38 0,0 -0.11,-0.07 -0.11,-0.07 -0.12,-0.08 -0.03,0 -0.1,-0.04 -0.07,-0.04 -0.1,-0.13 -0.18,-0.21 -0.05,0.08 -0.02,0.1 -0.13,0.14 -0.16,-0.16 0.04,-0.09 -0.16,-0.17 -0.13,0.14 0,0.08 -0.08,0.25 -0.14,-0.13 -0.11,-0.13 -0.06,-0.26 -0.25,-0.01 -0.17,0.25 -0.08,0.32 0.03,0.03 0.09,0.05 0.14,0.08 -0.01,0.13 0,0.12 -0.08,0.22 -0.08,-0.06 -0.05,-0.08 -0.09,-0.11 -0.06,-0.03 -0.01,0.05 -0.13,-0.05 -0.16,-0.13 0.01,-0.15 -0.22,-0.25 -0.05,0.11 0.03,0.14 0.1,0.27l-0.09 0.1 -0.58 -0.02 -0.04 0.14c-0.2,-0.12 -0.16,-0.05 -0.39,-0.08l-0.01 -0.13c-0.17,0.04 -0.51,-0.06 -0.66,0 -0.07,0.03 -0.17,0.15 -0.34,0.14 0,0 -0.63,-0.1 -0.82,-0.01l-0.3 0.28 0.05 0.16c-0.13,0.1 -0.06,0 -0.17,0.14 0.12,0.07 0.05,0.02 0.16,0.06 -0.13,0.2 -0.22,0.05 -0.21,0.36 0.18,0.01 -0.02,-0.01 0.16,0.06 0.01,0.01 0.09,0.03 0.1,0.03l-0.1 0.18c0.16,-0.09 0.24,-0.27 0.34,-0.41l0.07 0.05c0.01,0 0.01,0.01 0.02,0.02 0.16,-0.17 0.31,-0.08 0.53,0.02 0.09,0.14 0.03,0.14 0.2,0.27 0.1,0.07 0.18,0.12 0.22,0.24 0.14,0.39 0.07,0.11 0.16,0.3 0.15,0.34 -0.2,0.21 0.11,0.77 0.13,0.22 0.14,0.12 0.26,0.25l0.26 0.43c0.11,0.14 -0.01,0.09 0.17,0.13 -0.06,-0.15 -0.24,-0.3 -0.24,-0.45 0.11,0.08 0.06,0.11 0.17,0.23 0.07,0.07 0.16,0.13 0.23,0.2 0.25,0.28 -0.1,0.19 0.46,0.41 0.25,0.1 0.13,-0.09 0.61,0.18 0.12,0.06 0.05,0.13 0.2,0.22 0.17,0.11 0.25,0.04 0.38,0.1 0.1,0.26 -0.35,0.35 -0.56,0.42 -0.27,0.1 -0.54,0.18 -0.81,0.26 -1.16,0.35 -3.48,0.89 -4.61,0.35 -0.29,-0.14 -0.38,-0.34 -0.56,-0.54 0.01,0.43 0.3,0.77 0.71,0.93 0.21,0.08 0.46,0.12 0.69,0.15 0.83,0.08 1.74,-0.1 2.54,-0.29 0.52,-0.13 1.06,-0.3 1.55,-0.49 0.48,-0.18 2.41,-0.99 2.68,-1.31 -0.2,0.1 -0.51,0.33 -0.72,0.31 -0.16,-0.01 -0.33,-0.07 -0.51,-0.06 -0.26,0.02 -0.2,0.08 -0.36,0.18 -0.42,-0.11 -0.3,0.12 -0.36,-0.32zm-5.32 2.46c1.02,0.58 3.9,0.21 4.79,-0.65 -1.86,0.67 -2.93,0.78 -4.79,0.65zm4.57 0.45l0.19 -0.01c0.02,0.09 0.01,0.03 0,0.09 0,0.01 -0.02,0.07 -0.02,0.08 -0.01,0.05 0,0.1 0,0.15l0.27 0 0.01 -0.25c0.02,-0.01 0.12,-0.05 0.12,-0.06 0.01,-0.01 0.06,-0.21 0.17,-0.15 0.14,0.08 0.08,0.15 0.08,0.44 0,0 0.38,0.08 0.41,0.08 0.24,0.02 0.01,-0.06 0.5,-0.06 0.01,-0.59 -0.02,-0.26 -0.06,-0.62 0.02,-0.17 0.12,-0.06 0.27,-0.2 0.1,-0.11 0.17,-0.17 0.31,-0.22 0,-0.02 0.2,-0.35 0.2,-0.36 0.09,-0.1 0.22,-0.07 0.35,-0.2 0.14,-0.15 0.07,-0.25 0.15,-0.39 0.11,-0.16 0.2,-0.08 0.17,-0.33 -0.06,-0.11 -0.55,-0.15 -0.7,-0.16l0.02 -0.18c-0.18,0.02 -0.08,0.06 -0.27,0.06l-0.06 -0.24c-0.16,-0.01 -1.19,0.52 -1.25,0.59 0.01,0.06 0.15,0.32 0.2,0.4 0.08,0.14 0.18,0.14 0.32,0.22 0.03,0.14 -0.01,0.51 -0.1,0.64 -0.16,0.24 -1.6,0.61 -2.49,0.8 -0.53,0.11 -1.35,0.17 -1.8,0.13 0.84,0.35 2.24,-0.03 3.15,-0.32 -0.05,0.02 -0.1,0.05 -0.14,0.07zm1.02 -6.73c0,-0.04 0.04,-0.08 0.07,0.01 0.03,0.09 -0.06,0.05 -0.07,-0.01zm-5.61 1.9c0.96,-1.76 2.23,-3.32 4.61,-3.32 0.65,0 0.4,0.01 0.66,0.1 -0.24,0.19 -0.04,0.07 -0.07,0.17 -0.01,0.05 -0.1,0 0,0.11l-0.26 0.09 0.43 0.04c0.07,-0.08 0.13,-0.01 -0.03,-0.1 0.19,-0.06 0.2,-0.04 0.1,-0.18 0.21,-0.03 0.31,-0.14 0.54,-0.08l-0.05 0.15 -0.2 0.03c0.04,0.06 0.05,0.06 0.08,0.12 0.06,0.13 -0.04,-0.02 0.05,0.12 0.02,0.01 0.72,0 0.74,0.55l0.14 0.01c-0.03,0.2 -0.04,-0.03 -0.05,0.16 0.13,0.12 -0.03,-0.02 0.15,0.05 -0.12,0.38 -0.09,0.18 0.06,0.5 0.07,0.15 0.2,0.37 0.37,0.41 0.08,-0.18 0.06,-0.32 0.22,-0.47 0.15,-0.13 0.36,-0.19 0.42,-0.29 -0.05,-0.09 -0.06,-0.07 -0.1,-0.12 -0.12,-0.17 0.08,-0.01 -0.24,-0.49 0.42,0.36 0.94,0.69 1.25,1.32 0.09,0.18 0.04,0.18 0.06,0.36 0.04,0.31 0.27,0.14 0.13,0.6 -0.06,0.19 -0.07,0.09 -0.16,0.22 0.07,0.1 0.09,0.11 0.11,0.24 -0.15,0.08 -0.04,-0.03 -0.22,0.06 0.01,0.2 -0.01,0.35 0.23,0.34l0.1 -0.3c0.2,0.03 0.1,0.01 0.2,0.14 0.17,0.24 0.13,-0.11 0.2,0.44 -0.24,-0.01 -0.17,-0.08 -0.26,-0.26 -0.16,0 -0.33,0.04 -0.4,0.18 -0.07,0.13 -0.14,0.25 -0.21,0.38 -0.14,0.28 -0.13,0.7 0.09,0.93 0.33,0.02 0.19,-0.13 0.42,-0.09 0.22,0.93 -0.9,2.47 -1.64,2.89 0.37,-0.05 1.2,-0.99 1.42,-1.31 1.11,-1.55 1.13,-3.61 0.03,-5.17 -0.15,-0.21 -0.56,-0.62 -0.63,-0.75 0.87,-0.11 1.61,-0.01 2.05,0.65 -0.08,-0.83 -1.1,-0.94 -1.81,-0.88 -0.23,0.02 -0.44,0.03 -0.51,0.01 -0.01,0 -0.32,-0.25 -0.33,-0.26 0.9,-0.16 1.5,-0.21 2.22,0.23 -0.6,-0.58 -1.47,-0.6 -2.27,-0.44 -0.18,0.04 -0.2,0.07 -0.49,-0.08 -0.68,-0.37 -1.41,-0.55 -2.13,-0.58 -2.4,-0.09 -4.43,1.27 -5.02,3.57z"/>
 </g>
</svg>
