<?xml version="1.0" encoding="UTF-8"?>
<!DOCTYPE svg PUBLIC "-//W3C//DTD SVG 1.1//EN" "http://www.w3.org/Graphics/SVG/1.1/DTD/svg11.dtd">
<!-- Creator: CorelDRAW 2020 (64-Bit) -->
<svg xmlns="http://www.w3.org/2000/svg" xml:space="preserve" width="356px" height="87px" version="1.1" style="shape-rendering:geometricPrecision; text-rendering:geometricPrecision; image-rendering:optimizeQuality; fill-rule:evenodd; clip-rule:evenodd"
viewBox="0 0 24.54 6"
 xmlns:xlink="http://www.w3.org/1999/xlink"
 xmlns:xodm="http://www.corel.com/coreldraw/odm/2003">
 <defs>
  <style type="text/css">
   <![CDATA[
    .fil0 {fill:url(#id0);fill-rule:nonzero}
   ]]>
  </style>
  <linearGradient id="id0" gradientUnits="userSpaceOnUse" x1="0" y1="3" x2="24.54" y2="3">
   <stop offset="0" style="stop-opacity:1; stop-color:#FF36A3"/>
   <stop offset="1" style="stop-opacity:1; stop-color:#F58E4D"/>
  </linearGradient>
 </defs>
 <g id="Слой_x0020_1">
  <metadata id="CorelCorpID_0Corel-Layer"/>
  <path class="fil0" d="M6.53 5.95c-0.1,0.02 -0.23,0.03 -0.33,0.04 -0.97,0.05 -1.95,0 -2.73,-0.66 -1.27,-1.08 -1.33,-3.16 -0.25,-4.4 0.61,-0.7 1.37,-0.85 2.27,-0.91 0.28,-0.01 0.76,0.01 1.04,0.04 -0.01,0.94 0.01,1.87 0.01,2.8 0,0.2 0,0.4 -0.02,0.6 -0.23,0.38 -0.88,0.47 -1.28,0.49 -0.63,0.03 -1.23,0.01 -1.72,-0.43 0.24,0.99 1.24,1.21 2.13,1.03 0.33,-0.06 0.49,-0.22 0.76,-0.41 0.03,-0.02 0.06,0 0.09,0.01 0.05,0.07 0.03,0.82 0.03,0.96l0 0.84zm8 -0.12c-0.03,0.03 -0.05,0.06 -0.09,0.08 -0.08,0.03 -2.12,0.02 -2.36,0.01 -0.06,0 -0.11,-0.01 -0.16,-0.03 -0.16,-0.21 0.19,-0.4 0.3,-0.58 0.82,-1.35 0.8,-3.42 -0.12,-4.71 -0.12,-0.17 -0.39,-0.29 -0.18,-0.51 0.21,-0.01 0.69,0 0.92,0l0.95 0c0.19,0 0.52,-0.02 0.69,0.03 0.11,0.12 -0.17,0.33 -0.25,0.42 -0.43,0.48 -0.65,1.14 -0.75,1.77 -0.16,0.98 0.03,2.11 0.58,2.95 0.09,0.14 0.26,0.26 0.38,0.37 0.08,0.07 0.09,0.09 0.09,0.2zm-14.53 -5.44l0 -0.3c0.85,-0.01 1.71,0 2.56,0.02 0.05,0 0.06,0.13 0.02,0.16 -0.17,0.19 -0.39,0.29 -0.55,0.49 -0.59,0.81 -0.72,1.92 -0.64,2.89 0.05,0.46 0.21,1.3 0.58,1.6 0.31,0.25 0.82,0.11 1.16,0.08l0.02 0c0.02,0.09 0.01,0.51 0.01,0.62l-3.13 0 -0.02 -0.27c0.76,-1.43 0.87,-3.27 0.26,-4.77 -0.07,-0.18 -0.17,-0.35 -0.27,-0.52zm9.28 2.65c-0.58,-0.29 -1.07,-0.52 -1.62,-0.9 -0.61,-0.41 -0.97,-1.02 -0.54,-1.71 0.15,-0.23 0.46,-0.33 0.72,-0.36 0.94,-0.09 1.39,0.53 1.47,1.39 0.05,-0.51 0.25,-1.05 0.76,-1.28 0.31,-0.13 0.75,-0.17 1.07,-0.04 0.74,0.3 0.7,1.22 0.17,1.7 -0.26,0.24 -0.49,0.4 -0.79,0.57 -0.4,0.23 -0.78,0.45 -1.2,0.62 0.55,0.28 1.05,0.56 1.6,0.9 0.58,0.36 1.04,0.95 0.63,1.63 -0.15,0.24 -0.43,0.33 -0.7,0.38 -1.09,0.05 -1.4,-0.4 -1.54,-1.41 -0.06,0.59 -0.19,1.13 -0.81,1.34 -0.81,0.31 -1.78,-0.21 -1.5,-1.16 0.21,-0.67 1.69,-1.36 2.28,-1.67zm13.26 2.93c-0.56,0.09 -1.26,-0.06 -1.71,-0.42 -0.57,-0.44 -0.83,-1.16 -0.9,-1.86 -0.15,-1.56 0.07,-3.46 1.98,-3.67 0.53,-0.08 1.29,0.09 1.7,0.43 0.57,0.47 0.82,1.24 0.89,1.95 0.16,1.49 -0.13,3.39 -1.96,3.57zm-0.49 -3.9c-0.48,0.1 -0.79,0.57 -0.69,1.04 0.09,0.48 0.55,0.8 1.03,0.7 0.49,-0.09 0.81,-0.56 0.71,-1.04 -0.1,-0.49 -0.57,-0.8 -1.05,-0.7zm-5.31 1.1c0,-0.12 -0.02,-0.29 0.16,-0.28 0.18,0.01 0.36,0.01 0.55,0.01l1.19 0.01c0.15,0 0.63,-0.02 0.73,0.01 0.09,0.09 0.13,0.33 0.14,0.45 0.11,1.37 -0.55,2.51 -2,2.6 -0.83,0.05 -1.68,0.06 -2.37,-0.49 -0.58,-0.48 -0.8,-1.25 -0.88,-1.97 -0.08,-0.86 0.07,-1.95 0.64,-2.63 0.5,-0.61 1.21,-0.79 1.96,-0.86 0.37,-0.04 0.91,0 1.26,0.08 0.48,0.11 0.91,0.33 1.18,0.75 0.32,0.51 0.25,1.26 -0.29,1.59 -0.04,0.03 -0.18,0.09 -0.22,0.08 -0.37,-0.04 -1.14,0.08 -1.47,-0.01 0.03,-0.12 0.34,-0.22 0.43,-0.44 0.28,-0.68 -0.29,-1.45 -1.05,-1.16 -0.3,0.12 -0.49,0.45 -0.49,0.77 0,0.89 -0.01,1.8 0,2.7 0.02,0.85 1.31,1.07 1.55,0.17 0.2,-0.7 -0.26,-1.17 -0.93,-1.29 -0.05,-0.01 -0.07,-0.05 -0.09,-0.09zm-12.03 -1.85c-0.56,0.06 -0.89,0.34 -1.09,0.87l1.09 0c0.34,0 0.7,-0.01 1.04,-0.01 -0.13,-0.54 -0.45,-0.87 -1.04,-0.86z"/>
 </g>
</svg>
