<?xml version="1.0" encoding="UTF-8"?>
<!DOCTYPE svg PUBLIC "-//W3C//DTD SVG 1.1//EN" "http://www.w3.org/Graphics/SVG/1.1/DTD/svg11.dtd">
<!-- Creator: CorelDRAW 2020 (64-Bit) -->
<svg xmlns="http://www.w3.org/2000/svg" xml:space="preserve" width="485px" height="130px" version="1.1" style="shape-rendering:geometricPrecision; text-rendering:geometricPrecision; image-rendering:optimizeQuality; fill-rule:evenodd; clip-rule:evenodd"
viewBox="0 0 45.52 12.26"
 xmlns:xlink="http://www.w3.org/1999/xlink"
 xmlns:xodm="http://www.corel.com/coreldraw/odm/2003">
 <defs>
  <style type="text/css">
   <![CDATA[
    .fil1 {fill:#12447B}
    .fil0 {fill:url(#id0)}
   ]]>
  </style>
  <linearGradient id="id0" gradientUnits="userSpaceOnUse" x1="0" y1="6.13" x2="44.57" y2="6.13">
   <stop offset="0" style="stop-opacity:1; stop-color:#12447B"/>
   <stop offset="1" style="stop-opacity:1; stop-color:#029BB2"/>
  </linearGradient>
 </defs>
 <g id="Слой_x0020_1">
  <metadata id="CorelCorpID_0Corel-Layer"/>
  <path class="fil0" d="M22.3 1.54c0.31,1.51 2.88,1.03 2.38,-0.7 -0.39,-1.35 -2.74,-1.04 -2.38,0.7zm12.7 0.28c-2.59,-2.67 -8.8,-1.62 -8.93,3.46 -0.15,5.99 6.84,5.87 8.92,4.2l-0.02 -4.49 -3.5 0.03 0.02 1.83 1.31 0 0.01 1.3c-0.27,0.18 -0.62,0.28 -1,0.31 -1.94,0.16 -3.33,-1.01 -3.35,-2.99 -0.01,-1.25 0.61,-2.52 2.08,-2.88 1.47,-0.37 2.02,0.08 3.11,0.79l1.35 -1.56zm4.21 5.33c-0.29,-2.45 2.69,-2.74 3.06,-0.75 0.45,2.45 -2.81,2.86 -3.06,0.75zm5.27 0.5c0.99,-5.14 -6.38,-6.16 -7.5,-1.74 -0.53,2.11 0.79,4.08 2.87,4.47 2,0.39 4.23,-0.64 4.63,-2.73zm-22.09 2.66l2.2 0 0 -6.99 -2.23 0 0.03 6.99zm-6.3 -3.62l-3.29 5.57 2.45 -0.01 2.29 -4 1.29 2.07 2.44 0 -2.25 -3.62 2.07 -3.39 -2.35 0.02 -1.15 1.81 -1.19 -1.84 -2.49 0.03 2.18 3.36zm-7.32 -0.69c0.12,-1.62 2.83,-1.8 2.86,-0.02l-2.86 0.02zm0.01 1.36l4.91 -0.11c0.72,-2.97 -2.45,-4.95 -4.98,-3.84 -2.56,1.13 -3.1,5.13 -0.33,6.63 0.62,0.34 1.5,0.49 2.36,0.43 1.21,-0.08 1.84,-0.42 2.71,-1.28l-1.25 -1.2c-0.72,0.56 -1,0.86 -2.05,0.73 -0.74,-0.1 -1.29,-0.6 -1.37,-1.36zm-8.77 2.96l5.84 -0.02 -0.02 -2.01 -3.53 -0.03 -0.06 -7.69 -2.24 0.01 0.01 9.74z"/>
  <path class="fil1" d="M34.98 8.89c-0.16,0.22 -0.38,0.59 -0.24,0.84 0.09,0.15 0.29,0.23 0.45,0.26 0.27,0.06 0.57,0.06 0.83,0.03 0.07,0 0.14,-0.02 0.2,-0.03 0.08,-0.01 0.17,-0.03 0.25,-0.04 0.01,0 0.01,0 0.02,0l0.61 -0.18c0.09,-0.04 0.19,-0.08 0.28,-0.11 0.07,-0.03 0.14,-0.06 0.2,-0.08 0.04,-0.02 0.08,-0.03 0.12,-0.04 0.06,-0.04 0.15,-0.09 0.21,-0.11 0.06,-0.03 0.13,-0.06 0.19,-0.1 0.41,-0.21 0.8,-0.44 1.18,-0.7 0.47,-0.32 0.94,-0.69 1.36,-1.09 0.31,-0.29 0.61,-0.59 0.9,-0.91 0.29,-0.34 0.57,-0.69 0.81,-1.07 0.02,-0.03 0.04,-0.06 0.06,-0.1 -0.01,0.02 -0.03,0.03 -0.05,0.05 -0.62,0.61 -1.29,1.19 -1.98,1.72 -0.37,0.28 -0.76,0.55 -1.15,0.8 -0.37,0.24 -0.75,0.46 -1.15,0.64 -0.15,0.07 -0.31,0.14 -0.47,0.2 -0.14,0.05 -0.27,0.1 -0.41,0.16l0 0 0 0c-0.41,0.14 -0.83,0.21 -1.26,0.25l0 0 -0.01 0c-0.24,0.01 -0.56,0.02 -0.77,-0.12 -0.09,-0.06 -0.15,-0.14 -0.18,-0.25 0,-0.01 0,-0.01 0,-0.02z"/>
  <path class="fil1" d="M44.19 4.5l0.02 -0.04c0.05,-0.13 0.1,-0.26 0.16,-0.39 0.03,-0.07 0.06,-0.15 0.08,-0.23 0.02,-0.04 0.03,-0.09 0.04,-0.14 -0.04,-0.05 -0.09,-0.1 -0.13,-0.14 -0.08,-0.08 -0.16,-0.15 -0.25,-0.23 -0.08,-0.07 -0.17,-0.15 -0.26,-0.22 -0.06,-0.05 -0.13,-0.11 -0.2,-0.15 -1.19,-0.84 -2.65,-1.05 -4.07,-0.78 -1.3,0.26 -2.3,0.91 -3.14,1.92 -0.03,0.04 -0.06,0.07 -0.09,0.11 0.95,-0.85 2.15,-1.4 3.43,-1.52 1.05,-0.1 2.16,0.01 3.09,0.54 0.26,0.14 0.49,0.32 0.71,0.52 0.13,0.13 0.44,0.48 0.61,0.75z"/>
  <path class="fil1" d="M36.69 10.13l0.17 0.19c0.09,0.1 0.19,0.19 0.29,0.28 0.63,0.56 1.47,0.88 2.31,0.96 0.71,0.07 1.45,-0.02 2.11,-0.29 0.11,-0.05 0.21,-0.1 0.32,-0.15 0.12,-0.07 0.25,-0.15 0.37,-0.22 0.04,-0.03 0.09,-0.06 0.15,-0.1 -0.23,0.08 -0.46,0.14 -0.7,0.18 -0.95,0.16 -1.93,0.03 -2.8,-0.38 -0.07,-0.03 -0.14,-0.07 -0.21,-0.1 -0.19,-0.1 -0.38,-0.23 -0.55,-0.35 -0.09,-0.07 -0.19,-0.14 -0.28,-0.22 -0.05,-0.05 -0.11,-0.1 -0.16,-0.15 -0.02,0 -0.04,0.01 -0.05,0.01 -0.07,0.03 -0.13,0.05 -0.19,0.08 -0.1,0.04 -0.2,0.08 -0.3,0.11l0 0 -0.48 0.15z"/>
  <path class="fil1" d="M44.72 3.71c-0.02,0.15 -0.09,0.32 -0.14,0.45 -0.05,0.13 -0.11,0.26 -0.16,0.39l0 0 -0.12 0.26 0 0c-0.11,0.2 -0.21,0.41 -0.32,0.61 -0.51,0.95 -1.17,1.81 -1.92,2.57 0.11,-0.08 0.23,-0.17 0.34,-0.26l0.79 -0.73c0.03,-0.03 0.07,-0.07 0.1,-0.11 0.12,-0.14 0.25,-0.28 0.37,-0.42 0.14,-0.17 0.28,-0.35 0.4,-0.52l0.35 -0.51c0.04,-0.1 0.1,-0.19 0.16,-0.28 0.05,-0.1 0.1,-0.19 0.14,-0.28l0.28 -0.59c0.05,-0.18 0.13,-0.35 0.19,-0.52 0.13,-0.41 0.38,-1.29 0.28,-1.71 -0.02,-0.08 -0.06,-0.17 -0.15,-0.2 -0.17,-0.07 -0.44,0.06 -0.58,0.15 -0.12,0.07 -0.31,0.22 -0.45,0.37 0.09,-0.01 0.19,-0.01 0.28,0.02 0.13,0.06 0.21,0.17 0.25,0.29 0.08,0.23 0.03,0.79 -0.09,1.02z"/>
  <path class="fil1" d="M36.01 9.04c0.33,-0.03 0.65,-0.08 0.97,-0.18 -0.24,-0.39 -0.39,-0.83 -0.47,-1.27 -0.1,-0.55 -0.1,-1.12 0.01,-1.66 0.1,-0.49 0.28,-0.92 0.52,-1.35 0.12,-0.22 0.25,-0.41 0.39,-0.59 -0.03,0.02 -0.05,0.04 -0.08,0.06 -0.15,0.11 -0.29,0.23 -0.43,0.36 -0.12,0.12 -0.22,0.24 -0.33,0.38 -0.07,0.09 -0.14,0.19 -0.2,0.3 -0.68,1.06 -0.87,2.47 -0.49,3.68 0.03,0.09 0.07,0.18 0.11,0.27z"/>
  <path class="fil1" d="M45.51 6.12c-0.17,0.5 -0.48,1 -0.79,1.4 0,0.12 -0.04,0.31 -0.06,0.39 -0.02,0.13 -0.06,0.26 -0.09,0.39 -0.18,0.67 -0.53,1.41 -0.97,1.94 -0.32,0.39 -0.7,0.74 -1.12,1.03 0.78,-0.35 1.49,-0.92 1.99,-1.62 0.56,-0.78 0.99,-1.88 1.05,-2.84 0.01,-0.19 0.01,-0.38 0,-0.56 0,-0.04 0,-0.08 -0.01,-0.13z"/>
  <path class="fil1" d="M45.44 5.59c0,-0.12 0.04,-0.24 0.05,-0.36 0.01,-0.06 0.02,-0.13 0.03,-0.19 -0.09,0.3 -0.55,1.31 -0.76,1.54 -0.03,0.08 -0.09,0.17 -0.14,0.23 -0.08,0.11 -0.16,0.22 -0.25,0.32 -0.13,0.16 -0.27,0.32 -0.4,0.48 -0.07,0.08 -0.14,0.15 -0.21,0.22 -0.08,0.08 -0.16,0.17 -0.25,0.25 -0.16,0.14 -0.32,0.29 -0.49,0.43 -0.33,0.28 -0.69,0.53 -1.05,0.77 0,0 0,0 0,0.01 0.79,-0.36 1.55,-0.87 2.17,-1.47 0.07,-0.07 0.12,-0.14 0.19,-0.2 0.03,-0.03 0.06,-0.07 0.09,-0.1 0.03,-0.03 0.06,-0.06 0.08,-0.1l0 0 0.01 -0.01c0.34,-0.43 0.7,-1 0.84,-1.54 0.02,-0.08 0.05,-0.2 0.09,-0.28z"/>
  <path class="fil1" d="M44.63 5.51c0.06,0.21 0.1,0.44 0.12,0.67 0.09,-0.15 0.17,-0.32 0.24,-0.48 0.07,-0.14 0.14,-0.29 0.2,-0.44 0.03,-0.07 0.06,-0.15 0.09,-0.23 -0.01,-0.02 -0.02,-0.04 -0.02,-0.06l-0.17 -0.36 -0.17 0.37 0 0c-0.05,0.1 -0.1,0.19 -0.15,0.29 -0.05,0.08 -0.1,0.15 -0.14,0.24z"/>
 </g>
</svg>
