<?xml version="1.0" encoding="UTF-8"?>
<!DOCTYPE svg PUBLIC "-//W3C//DTD SVG 1.1//EN" "http://www.w3.org/Graphics/SVG/1.1/DTD/svg11.dtd">
<!-- Creator: CorelDRAW 2020 (64-Bit) -->
<svg xmlns="http://www.w3.org/2000/svg" xml:space="preserve" width="228px" height="220px" version="1.1" style="shape-rendering:geometricPrecision; text-rendering:geometricPrecision; image-rendering:optimizeQuality; fill-rule:evenodd; clip-rule:evenodd"
viewBox="0 0 148.3 143.2"
 xmlns:xlink="http://www.w3.org/1999/xlink"
 xmlns:xodm="http://www.corel.com/coreldraw/odm/2003">
 <defs>
  <style type="text/css">
   <![CDATA[
    .fil0 {fill:black;fill-rule:nonzero}
   ]]>
  </style>
 </defs>
 <g id="Слой_x0020_1">
  <metadata id="CorelCorpID_0Corel-Layer"/>
  <path class="fil0" d="M0 94.2l0 -39.2c0,-8.1 6.6,-14.6 14.7,-14.6l19.6 0 33.4 -32.3c1.1,-1.3 2.8,-2 4.5,-2 3.4,0 6.1,2.7 6.1,6.1 0,0 0,0 0,0l0 124.8c0,0 0,0.1 0,0.1 0,3.3 -2.7,6.1 -6.1,6.1 -1.7,0 -3.4,-0.8 -4.5,-2.1l-33.4 -32.2 -19.6 0c-8.1,0 -14.7,-6.6 -14.7,-14.7l0 0zm93.3 -46.1l0 48.2c0.8,20.1 20,-2.1 20,-24.9 0,-22.8 -20,-43.6 -20,-23.3zm10 94c27.4,-12.8 45,-40.4 45,-70.7 0,-30.4 -17.6,-58 -45,-70.8 -1.1,-0.4 -2.2,-0.6 -3.3,-0.6 -5.4,0 -9.8,4.4 -9.8,9.8 0,3.5 1.9,6.7 4.9,8.5 20.5,9.7 33.6,30.4 33.6,53.1 0,22.6 -13.1,43.3 -33.6,53 -3,1.8 -4.9,5 -4.9,8.5 0,5.4 4.4,9.8 9.8,9.8 1.1,0 2.2,-0.2 3.3,-0.6l0 0z"/>
 </g>
</svg>
