<?xml version="1.0" encoding="UTF-8"?>
<!DOCTYPE svg PUBLIC "-//W3C//DTD SVG 1.1//EN" "http://www.w3.org/Graphics/SVG/1.1/DTD/svg11.dtd">
<!-- Creator: CorelDRAW 2020 (64-Bit) -->
<svg xmlns="http://www.w3.org/2000/svg" xml:space="preserve" width="239px" height="239px" version="1.1" style="shape-rendering:geometricPrecision; text-rendering:geometricPrecision; image-rendering:optimizeQuality; fill-rule:evenodd; clip-rule:evenodd"
viewBox="0 0 143 143"
 xmlns:xlink="http://www.w3.org/1999/xlink"
 xmlns:xodm="http://www.corel.com/coreldraw/odm/2003">
 <defs>
  <style type="text/css">
   <![CDATA[
    .fil0 {fill:black}
   ]]>
  </style>
 </defs>
 <g id="Слой_x0020_1">
  <metadata id="CorelCorpID_0Corel-Layer"/>
  <path class="fil0" d="M93.9 126.3c-0.3,0.1 -0.6,0.2 -0.9,0.4 -0.7,0.2 -1.3,0.7 -1.8,1.2 -0.4,0.6 -0.7,1.3 -0.8,2l-0.4 2.8c-0.4,2.8 -1.9,5.5 -4.1,7.4 -2.2,1.9 -5,2.9 -7.9,2.9l-13 0c-2.9,0 -5.7,-1 -7.9,-2.9 -2.2,-1.9 -3.6,-4.6 -4,-7.4l-0.5 -2.8c-0.1,-0.7 -0.3,-1.4 -0.8,-2 -0.5,-0.5 -1.1,-1 -1.7,-1.2 -0.4,-0.2 -0.8,-0.3 -1.2,-0.5 -0.4,-0.2 -0.8,-0.3 -1.2,-0.5 -0.7,-0.3 -1.4,-0.4 -2.2,-0.4 -0.7,0.1 -1.4,0.4 -2,0.9l-2.2 1.6c-2.3,1.7 -5.2,2.6 -8.1,2.4 -2.9,-0.2 -5.6,-1.5 -7.7,-3.6l-9.1 -9.1c-2.1,-2.1 -3.4,-4.8 -3.6,-7.7 -0.2,-2.9 0.7,-5.8 2.4,-8.1l1.7 -2.2c0.4,-0.6 0.7,-1.3 0.8,-2 0.1,-0.8 -0.1,-1.5 -0.4,-2.2 -0.2,-0.3 -0.3,-0.7 -0.5,-1.1 -0.2,-0.4 -0.3,-0.8 -0.5,-1.2 -0.2,-0.7 -0.6,-1.3 -1.2,-1.8 -0.6,-0.4 -1.3,-0.7 -2,-0.8l-2.7 -0.4c-2.9,-0.5 -5.6,-1.9 -7.5,-4.1 -1.9,-2.2 -2.9,-5 -2.9,-7.9l0 -13c0,-2.9 1,-5.7 2.9,-7.9 1.9,-2.2 4.6,-3.6 7.5,-4.1l2.7 -0.4c0.7,-0.1 1.4,-0.3 2,-0.8 0.6,-0.5 1,-1.1 1.2,-1.7 0.2,-0.5 0.3,-0.9 0.5,-1.2 0.2,-0.4 0.3,-0.8 0.5,-1.2 0.3,-0.7 0.5,-1.4 0.4,-2.2 -0.1,-0.7 -0.4,-1.4 -0.8,-2l-1.7 -2.2c-1.7,-2.3 -2.6,-5.2 -2.4,-8.1 0.3,-2.9 1.5,-5.6 3.6,-7.7l9.1 -9.1c2.1,-2.1 4.8,-3.3 7.7,-3.6 2.9,-0.2 5.8,0.7 8.1,2.4l2.2 1.7c0.6,0.4 1.3,0.7 2,0.8 0.8,0.1 1.5,-0.1 2.2,-0.4 0.4,-0.2 0.8,-0.3 1.2,-0.5 0.4,-0.1 0.8,-0.3 1.2,-0.5 0.6,-0.2 1.2,-0.6 1.7,-1.2 0.5,-0.6 0.7,-1.3 0.8,-2l0.4 -2.7c0.5,-2.9 1.9,-5.5 4.1,-7.5 2.2,-1.9 5,-2.9 7.9,-2.9l13 0c2.9,0 5.7,1 7.9,2.9 2.2,1.9 3.7,4.6 4.1,7.4l0.4 2.8c0.1,0.7 0.4,1.4 0.8,2 0.5,0.6 1.1,1 1.8,1.2 0.4,0.2 0.8,0.3 1.2,0.5 0.4,0.2 0.8,0.3 1.2,0.5 0.6,0.3 1.4,0.4 2.1,0.4 0.7,-0.1 1.4,-0.4 2,-0.8l2.2 -1.7c2.4,-1.7 5.2,-2.6 8.1,-2.4 2.9,0.2 5.7,1.5 7.7,3.6l9.2 9.1c2,2.1 3.3,4.8 3.5,7.7 0.2,2.9 -0.6,5.8 -2.4,8.1l-1.6 2.2c-0.5,0.6 -0.8,1.3 -0.8,2 -0.1,0.8 0,1.5 0.3,2.2 0.2,0.4 0.4,0.8 0.5,1.1 0.2,0.4 0.3,0.8 0.5,1.2 0.3,0.7 0.7,1.3 1.3,1.8 0.5,0.5 1.2,0.7 1.9,0.8l2.8 0.4c2.9,0.5 5.5,1.9 7.4,4.1 1.9,2.2 2.9,5 2.9,7.9l0 13c0,2.9 -1,5.7 -2.9,7.9 -1.9,2.2 -4.5,3.6 -7.4,4.1l-2.8 0.4c-0.7,0.1 -1.4,0.3 -1.9,0.8 -0.6,0.5 -1,1.1 -1.3,1.8 -0.2,0.4 -0.3,0.8 -0.5,1.2 -0.1,0.4 -0.3,0.7 -0.5,1.1 -0.3,0.7 -0.4,1.4 -0.3,2.2 0,0.7 0.3,1.4 0.8,2l1.6 2.2c1.8,2.4 2.6,5.2 2.4,8.1 -0.2,2.9 -1.5,5.6 -3.5,7.7l-9.2 9.2c-2,2 -4.8,3.3 -7.7,3.5 -2.9,0.2 -5.7,-0.6 -8.1,-2.4l-2.2 -1.6c-0.6,-0.5 -1.3,-0.8 -2,-0.9 -0.7,0 -1.5,0.1 -2.1,0.4 -0.4,0.2 -0.8,0.3 -1.2,0.5l-0.3 0.1 0 0zm-3.8 -7.1c0.3,-0.1 0.7,-0.2 1,-0.4 0.4,-0.1 0.7,-0.3 1,-0.4 2,-0.9 4.1,-1.2 6.3,-1 2.1,0.2 4.1,1.1 5.8,2.3l2.3 1.7c0.8,0.6 1.8,0.9 2.8,0.8 1,-0.1 1.9,-0.5 2.6,-1.2l9.1 -9.2c0.7,-0.7 1.2,-1.6 1.3,-2.6 0,-1 -0.3,-2 -0.9,-2.8l-1.6 -2.2c-1.3,-1.7 -2.1,-3.7 -2.4,-5.9 -0.2,-2.1 0.2,-4.2 1,-6.2 0.2,-0.3 0.3,-0.7 0.5,-1 0.1,-0.4 0.2,-0.7 0.4,-1 0.7,-2 2,-3.8 3.7,-5.1 1.7,-1.4 3.7,-2.2 5.8,-2.5l2.7 -0.4c1,-0.2 1.9,-0.7 2.6,-1.4 0.6,-0.8 0.9,-1.8 0.9,-2.7l0 -13c0,-1 -0.3,-2 -0.9,-2.7 -0.7,-0.8 -1.6,-1.2 -2.6,-1.4l-2.7 -0.4c-2.1,-0.3 -4.1,-1.1 -5.8,-2.5 -1.7,-1.3 -3,-3.1 -3.7,-5.1 -0.2,-0.3 -0.3,-0.7 -0.4,-1 -0.2,-0.4 -0.3,-0.7 -0.5,-1 -0.8,-2 -1.2,-4.1 -1,-6.3 0.3,-2.1 1.1,-4.1 2.4,-5.8l1.6 -2.3c0.6,-0.8 0.9,-1.8 0.9,-2.8 -0.1,-1 -0.6,-1.9 -1.3,-2.6l-9.1 -9.1c-0.7,-0.7 -1.6,-1.2 -2.6,-1.3 -1,0 -2,0.3 -2.8,0.9l-2.3 1.6c-1.7,1.3 -3.7,2.1 -5.8,2.4 -2.2,0.2 -4.3,-0.2 -6.3,-1 -0.3,-0.2 -0.6,-0.3 -1,-0.5 -0.3,-0.1 -0.7,-0.2 -1,-0.4 -2,-0.7 -3.8,-2 -5.1,-3.7 -1.4,-1.7 -2.2,-3.7 -2.5,-5.8l-0.4 -2.7c-0.2,-1 -0.6,-1.9 -1.4,-2.6 -0.7,-0.6 -1.7,-0.9 -2.7,-0.9l-13 0c-1,0 -1.9,0.3 -2.7,0.9 -0.7,0.7 -1.2,1.6 -1.4,2.6l-0.4 2.7c-0.3,2.1 -1.1,4.1 -2.5,5.8 -1.3,1.7 -3.1,2.9 -5.1,3.7 -0.3,0.2 -0.6,0.3 -1,0.4 -0.3,0.2 -0.7,0.3 -1,0.5 -2,0.8 -4.1,1.2 -6.2,1 -2.2,-0.3 -4.2,-1.1 -5.9,-2.4l-2.2 -1.6c-0.9,-0.6 -1.8,-0.9 -2.8,-0.9 -1,0.1 -1.9,0.6 -2.6,1.3l-9.2 9.1c-0.7,0.7 -1.1,1.6 -1.2,2.6 -0.1,1 0.2,2 0.8,2.8l1.6 2.3c1.3,1.7 2.2,3.7 2.4,5.8 0.2,2.2 -0.1,4.3 -1,6.3 -0.1,0.3 -0.3,0.6 -0.4,1 -0.2,0.3 -0.3,0.7 -0.4,1 -0.8,2 -2.1,3.8 -3.8,5.1 -1.6,1.3 -3.6,2.2 -5.7,2.5l-2.8 0.4c-1,0.2 -1.9,0.6 -2.5,1.4 -0.7,0.7 -1,1.7 -1,2.7l0 13c0,0.9 0.3,1.9 1,2.7 0.6,0.7 1.5,1.2 2.5,1.4l2.8 0.4c2.1,0.3 4.1,1.1 5.7,2.5 1.7,1.3 3,3.1 3.8,5.1 0.1,0.3 0.2,0.6 0.4,1 0.1,0.3 0.3,0.7 0.4,1 0.9,2 1.2,4.1 1,6.2 -0.2,2.2 -1.1,4.2 -2.3,5.9l-1.7 2.2c-0.6,0.8 -0.9,1.8 -0.8,2.8 0.1,1 0.5,1.9 1.2,2.6l9.2 9.2c0.7,0.7 1.6,1.1 2.6,1.2 1,0.1 2,-0.2 2.8,-0.8l2.2 -1.7c1.7,-1.2 3.7,-2.1 5.9,-2.3 2.1,-0.2 4.2,0.1 6.2,1 0.3,0.1 0.7,0.3 1,0.4 0.4,0.2 0.7,0.3 1,0.4 2,0.8 3.8,2.1 5.1,3.7 1.4,1.7 2.2,3.7 2.5,5.8l0.4 2.8c0.2,1 0.7,1.9 1.4,2.5 0.8,0.7 1.8,1 2.7,1l13 0c1,0 2,-0.3 2.7,-1 0.8,-0.6 1.2,-1.5 1.4,-2.5l0.4 -2.8c0.3,-2.1 1.1,-4.1 2.5,-5.8 1.3,-1.6 3.1,-2.9 5.1,-3.7zm-18.6 -85.7c10.1,0 19.7,4 26.9,11.1 7.1,7.2 11.1,16.8 11.1,26.9 0,10.1 -4,19.7 -11.1,26.8 -7.2,7.2 -16.8,11.2 -26.9,11.2 -10.1,0 -19.7,-4 -26.8,-11.2 -7.2,-7.1 -11.2,-16.7 -11.2,-26.8 0,-10.1 4,-19.7 11.2,-26.9 7.1,-7.1 16.7,-11.1 26.8,-11.1zm21.2 16.8c-5.6,-5.7 -13.2,-8.8 -21.2,-8.8 -8,0 -15.6,3.1 -21.2,8.8 -5.6,5.6 -8.8,13.2 -8.8,21.2 0,8 3.2,15.6 8.8,21.2 5.6,5.7 13.2,8.8 21.2,8.8 8,0 15.6,-3.1 21.2,-8.8 5.7,-5.6 8.8,-13.2 8.8,-21.2 0,-8 -3.1,-15.6 -8.8,-21.2z"/>
 </g>
</svg>
