<?xml version="1.0" encoding="UTF-8"?>
<!DOCTYPE svg PUBLIC "-//W3C//DTD SVG 1.1//EN" "http://www.w3.org/Graphics/SVG/1.1/DTD/svg11.dtd">
<!-- Creator: CorelDRAW 2020 (64-Bit) -->
<svg xmlns="http://www.w3.org/2000/svg" xml:space="preserve" width="163px" height="247px" version="1.1" style="shape-rendering:geometricPrecision; text-rendering:geometricPrecision; image-rendering:optimizeQuality; fill-rule:evenodd; clip-rule:evenodd"
viewBox="0 0 77.3 117.3"
 xmlns:xlink="http://www.w3.org/1999/xlink"
 xmlns:xodm="http://www.corel.com/coreldraw/odm/2003">
 <defs>
  <style type="text/css">
   <![CDATA[
    .fil0 {fill:black}
   ]]>
  </style>
 </defs>
 <g id="Слой_x0020_1">
  <metadata id="CorelCorpID_0Corel-Layer"/>
  <path class="fil0" d="M70.4 54.9c0,-4.6 6.9,-4.6 6.9,0 0,11.4 -3.6,20.8 -11.3,28.6 -6.3,6.2 -14.6,10.3 -23.9,11.2l0 19.2c0,4.6 -6.9,4.6 -6.9,0l0 -19.2c-19.7,-1.8 -35.2,-18.5 -35.2,-38.6l0 -1.2c0,-4.6 6.9,-4.6 6.9,0 0,9.5 2.9,17.2 9.3,23.7 20.2,20.1 54.2,5.4 54.2,-22.5l0 -1.2 0 0zm-31.7 -54.9c-13.7,0 -24.9,11.2 -24.9,24.9l0 31.2c0,6.9 2.8,13.1 7.3,17.6 15.7,15.7 42.4,4.3 42.4,-17.6l0 -31.2c0,-13.7 -11.2,-24.9 -24.8,-24.9l0 0zm0 6.9c-9.9,0 -18,8.1 -18,18l0 31.2c0,15.8 19.3,24.1 30.6,12.7 3.3,-3.2 5.3,-7.7 5.3,-12.7l0 -31.2c0,-9.9 -8.1,-18 -17.9,-18z"/>
 </g>
</svg>
