<?xml version="1.0" encoding="UTF-8"?>
<!DOCTYPE svg PUBLIC "-//W3C//DTD SVG 1.1//EN" "http://www.w3.org/Graphics/SVG/1.1/DTD/svg11.dtd">
<!-- Creator: CorelDRAW 2020 (64-Bit) -->
<svg xmlns="http://www.w3.org/2000/svg" xml:space="preserve" width="241px" height="217px" version="1.1" style="shape-rendering:geometricPrecision; text-rendering:geometricPrecision; image-rendering:optimizeQuality; fill-rule:evenodd; clip-rule:evenodd"
viewBox="0 0 135.7 121.9"
 xmlns:xlink="http://www.w3.org/1999/xlink"
 xmlns:xodm="http://www.corel.com/coreldraw/odm/2003">
 <defs>
  <style type="text/css">
   <![CDATA[
    .fil0 {fill:black;fill-rule:nonzero}
   ]]>
  </style>
 </defs>
 <g id="Слой_x0020_1">
  <metadata id="CorelCorpID_0Corel-Layer"/>
  <path class="fil0" d="M21.2 15c-1.6,-1.6 -2.5,-3.7 -2.5,-6 0,-4.7 3.8,-8.5 8.5,-8.5 2.3,0 4.4,0.9 6,2.5l16 16 13.8 -14.9c1,-1.1 2.4,-1.7 3.9,-1.7 2.9,0 5.2,2.4 5.2,5.3l0 34.3 12.8 12.7 0 -13.8c0.1,-2.3 1.9,-4.1 4.2,-4.1 1.1,0 2.2,0.4 3,1.2 6.2,6.3 9.7,14.8 9.7,23.6 0,3.1 -0.4,6.1 -1.2,9l13.2 13.1c3.3,-6.8 5,-14.3 5,-22 0,-19.6 -11.3,-37.5 -29.1,-45.8 -2.6,-1.6 -4.3,-4.4 -4.3,-7.4 0,-4.7 3.8,-8.5 8.5,-8.5 1,0 2,0.2 2.9,0.5 23.7,11.1 38.9,35 38.9,61.2 0,12.2 -3.2,24.1 -9.4,34.5l4.6 4.5c1.6,1.6 2.5,3.8 2.5,6.1 0,4.7 -3.8,8.5 -8.5,8.5 -2.3,0 -4.5,-0.9 -6.1,-2.5l-97.6 -97.8zm-8.5 73l20.1 0 30.1 32.2c1,1.1 2.4,1.7 4,1.7 2.9,0 5.2,-2.3 5.2,-5.2 0,0 0,-0.1 0,-0.1l0 -28.6 -50.9 -50.9 -8.5 0c-7,0 -12.7,5.7 -12.7,12.7l0 25.5c0,7 5.7,12.7 12.7,12.7l0 0z"/>
 </g>
</svg>
